<?xml version="1.0" encoding="utf-8"?>
<!-- Generator: Adobe Illustrator 16.0.0, SVG Export Plug-In . SVG Version: 6.00 Build 0)  -->
<!DOCTYPE svg PUBLIC "-//W3C//DTD SVG 1.1//EN" "http://www.w3.org/Graphics/SVG/1.1/DTD/svg11.dtd">
<svg version="1.1" id="Layer_1" xmlns="http://www.w3.org/2000/svg" xmlns:xlink="http://www.w3.org/1999/xlink" x="0px" y="0px"
	 width="400px" height="400px" viewBox="0 0 400 400" enable-background="new 0 0 400 400" xml:space="preserve">
<g>
	<path fill-rule="evenodd" clip-rule="evenodd" d="M260.833,106.966c0,10.144,0,19.7,0,30.77c11.529-2.476,22.514-5.241,33.652-7.05
		c5.286-0.858,11.386-1.205,16.152,0.673c3.77,1.485,6.065,6.714,9.017,10.282c-3.675,2.259-7.147,5.966-11.061,6.511
		c-12.475,1.738-25.168,1.846-37.67,3.423c-18.302,2.309-36.518,5.315-54.764,8.08c-10.842,1.644-24.658-6.498-27.773-16.925
		c-0.63-2.113,0.17-5.088,1.313-7.096c0.507-0.892,4.026-1.175,5.292-0.358c13.928,8.972,28.811,5.597,44.956,3.651
		c0-9.227,0-18.637,0-29.233c-10.505,1.516-21.651,3.082-32.783,4.743c-12.463,1.859-25.512-4.227-30.217-14.737
		c-1.043-2.33-1.031-5.896,0.064-8.122c0.612-1.242,4.69-1.743,6.796-1.141c23.704,6.776,30.835,7.162,57.095,2.089
		c-0.882-13.77,2.825-28.323-8.651-40.273c-1.584-1.65-2.186-5.598-1.367-7.78c0.645-1.723,4.11-3.178,6.43-3.355
		c15.834-1.203,28.371,12.189,26.6,27.939c-0.743,6.628-1.215,13.288-1.954,21.557c14.476-2.748,27.537-5.669,40.744-7.528
		c5.779-0.812,11.945,0.067,17.779,1.07c5.281,0.907,8.879,5.117,6.846,10.168c-1.229,3.05-5.907,6.184-9.369,6.618
		c-17.154,2.146-34.424,3.395-51.646,4.997C264.865,106.073,263.439,106.469,260.833,106.966z"/>
	<path fill-rule="evenodd" clip-rule="evenodd" d="M345.71,275.38c0.883,8.896,1.169,17.905,2.814,26.657
		c1.811,9.624,5.306,18.927,7.167,28.543c0.701,3.633,0.026,8.6-2.082,11.414c-2.201,2.936-6.81,5.467-10.495,5.658
		c-20.081,1.037-40.392,3.227-60.251,1.256c-17.929-1.779-24.404-12.397-24.643-30.628c-0.388-29.915-0.84-59.829-1.107-89.743
		c-0.056-6.269-1.154-11.428-7.459-14.625c-1.709-0.865-2.966-4.183-2.903-6.332c0.032-1.112,3.317-2.805,5.29-3.07
		c10.614-1.421,19.975,2.51,27.334,9.47c2.858,2.702,4.354,9.339,3.27,13.309c-7.311,26.785-5.219,54.173-5.748,81.318
		c-0.326,16.624,5.529,21.227,22.03,21.332c25.935,0.167,25.938,0.17,33.062-24.368c2.122-7.312,4.071-14.677,6.406-21.918
		c0.997-3.088,2.776-5.924,4.202-8.874C343.635,274.979,344.672,275.181,345.71,275.38z"/>
	<path fill-rule="evenodd" clip-rule="evenodd" d="M308.5,219.305c3.446-7.475,7.027-14.893,10.278-22.45
		c1.437-3.339,2.211-6.967,3.285-10.463c-3.845-0.494-7.761-1.722-11.525-1.366c-37.348,3.546-74.677,7.327-112.001,11.119
		c-4.917,0.501-9.791,1.435-14.607,2.157c-2.603,11.15-4.718,22.051-7.786,32.679c-1.911,6.623-4.253,14.306-13.528,13.448
		c-6.111-0.563-11.006-12.359-8.896-20.789c1.06-4.236,3.301-8.169,4.478-12.386c3.132-11.225,5.841-22.565,9.023-33.774
		c0.89-3.135,2.839-5.969,4.304-8.94c2.721,1.935,6.688,3.293,7.908,5.924c2.805,6.048,7.003,6.792,12.787,6.218
		c45.45-4.491,91.183-6.754,135.822-17.538c1.669-0.403,3.524-0.681,5.183-0.393c8.789,1.537,27.794,25.368,26.313,34.007
		c-0.483,2.833-4.547,7.05-7.159,7.188c-14.212,0.764-25.135,9.109-37.241,14.714c-1.522,0.704-3.134,1.217-4.703,1.819
		C309.791,220.088,309.146,219.695,308.5,219.305z"/>
	<path fill-rule="evenodd" clip-rule="evenodd" d="M60.683,252.727c1.301,0.263,3.524,0.239,5.279,1.137
		c19.78,10.109,38.689,1.264,57.603-2.975c12.043-2.7,19.164-1.684,26.237,7.63c1.53,2.014,2.64,5.393,2.127,7.747
		c-4.047,18.575-8.598,37.04-12.852,55.57c-1.719,7.485-5.101,11.56-13.852,11.193c-8.1-0.339-16.328,1.283-24.43,2.509
		c-5.74,0.868-11.782,0.649-13.961,8.874c-1.407,5.313-9.539,5.262-12.712-0.439c-3.464-6.22-5.669-13.393-7.149-20.417
		c-3.073-14.589-5.035-29.411-8.025-44.02c-1.09-5.33-3.436-10.507-5.864-15.433C49.206,256.236,51.207,252.617,60.683,252.727z
		 M87.675,321.836c10.824-1.562,20.895-2.826,30.864-4.645c1.595-0.292,3.708-2.938,3.935-4.707
		c1.598-12.452,3.021-24.94,3.813-37.462c0.132-2.074-3.312-6.385-4.734-6.231c-14.03,1.511-27.983,3.748-42.279,5.825
		C82.207,291.104,84.846,305.937,87.675,321.836z"/>
	<path fill-rule="evenodd" clip-rule="evenodd" d="M150.606,352.589c1.865-2.102,3.59-4.35,5.619-6.278
		c30.918-29.41,45.415-66.959,52.425-107.844c0.847-4.939-4.142-10.859-6.357-16.354c-0.983-2.434-1.792-4.937-2.68-7.409
		c2.612-0.931,5.341-2.891,7.82-2.614c9.947,1.113,18.646,5.314,24.738,13.458c1.691,2.258,3.019,6.288,2.187,8.702
		c-7.916,22.909-15.198,46.144-24.934,68.287c-9.268,21.082-25.718,36.878-45.224,49.112c-3.498,2.194-7.908,2.935-11.897,4.343
		C151.738,354.857,151.171,353.724,150.606,352.589z"/>
	<path fill-rule="evenodd" clip-rule="evenodd" d="M61.948,145.065c-8.513-0.203-21.215-8.718-23.734-15.514
		c-2.425-6.541,0.501-11.569,6.04-9.312c22.444,9.15,43.809,0.948,65.44-2.972c10.054-1.82,19.917-4.726,29.986-6.426
		c4.084-0.69,9.335-0.805,12.524,1.225c3.55,2.26,7.327,7.297,7.251,11.052c-0.052,2.627-6.115,6.727-9.989,7.43
		c-28.142,5.107-56.41,9.521-84.639,14.144C63.675,144.882,62.51,144.994,61.948,145.065z"/>
	<path fill-rule="evenodd" clip-rule="evenodd" d="M76.174,228.479c-7.754,0.031-18.082-9.016-18.642-16.598
		c-0.418-5.679,2.056-9.204,7.649-7.081c19,7.211,36.857,0.838,55.101-3.258c5.995-1.347,12.738-1.325,18.691,0.033
		c2.522,0.576,4.825,6.057,5.391,9.602c0.286,1.788-3.241,5.702-5.53,6.146C118.148,221.334,97.354,224.787,76.174,228.479z"/>
	<path fill-rule="evenodd" clip-rule="evenodd" d="M74.306,185.811c-8.048-0.112-16.892-7.556-17.927-15.368
		c-0.638-4.82,1.421-9.39,6.543-7.27c20.787,8.607,40.112,0.536,59.652-4.366c6.803-1.707,12.925-2.078,17.857,2.986
		c2.104,2.159,3.649,6.344,3.095,9.142c-0.441,2.23-4.25,4.944-6.915,5.401c-19.552,3.362-39.192,6.215-58.808,9.209
		C76.65,185.722,75.473,185.735,74.306,185.811z"/>
	<path fill-rule="evenodd" clip-rule="evenodd" d="M71.354,55.754c3.826-0.34,6.236-1.208,8.222-0.626
		c14.596,4.274,29.37,8.165,43.507,13.664c5.229,2.035,9.513,7.626,13.037,12.464c1.818,2.495,2.627,8.426,1.045,10.08
		c-2.52,2.631-7.72,4.596-11.244,3.938c-5.886-1.098-12-3.584-16.854-7.094C97.203,79.6,85.981,70.129,74.577,60.921
		C73.542,60.085,73.064,58.559,71.354,55.754z"/>
</g>
</svg>
